<svg xmlns="http://www.w3.org/2000/svg" xmlns:xlink="http://www.w3.org/1999/xlink" width="1190" height="689.59"><rect width="1190" height="689.59" rx="5" ry="5" class="a"/><svg y="0%" x="0%"><circle cx="20" cy="20" r="6" fill="#ff5f58"/><circle cx="40" cy="20" r="6" fill="#ffbd2e"/><circle cx="60" cy="20" r="6" fill="#18c132"/></svg><svg height="629.59" viewBox="0 0 115 62.959" width="1150" x="15" xmlns="http://www.w3.org/2000/svg" xmlns:xlink="http://www.w3.org/1999/xlink" y="50"><style>@keyframes k{0%{transform:translateX(0)}.32%{transform:translateX(-115px)}.38%{transform:translateX(-230px)}.85%{transform:translateX(-345px)}3.71%{transform:translateX(-460px)}3.78%{transform:translateX(-575px)}8.72%{transform:translateX(-690px)}31.43%{transform:translateX(-805px)}31.51%{transform:translateX(-920px)}38.56%{transform:translateX(-1035px)}38.65%{transform:translateX(-1150px)}52.66%{transform:translateX(-1265px)}52.71%{transform:translateX(-1380px)}60.48%{transform:translateX(-1495px)}60.53%{transform:translateX(-1610px)}74.5%{transform:translateX(-1725px)}74.61%{transform:translateX(-1840px)}82.4%{transform:translateX(-1955px)}82.51%{transform:translateX(-2070px)}92.15%{transform:translateX(-2185px)}94.87%{transform:translateX(-2300px)}94.92%{transform:translateX(-2415px)}95.68%{transform:translateX(-2530px)}95.79%{transform:translateX(-2645px)}96.2%{transform:translateX(-2760px)}96.26%{transform:translateX(-2875px)}96.61%{transform:translateX(-2990px)}96.66%{transform:translateX(-3105px)}to{transform:translateX(-3220px)}}.a{fill:#282d35}.f,.g{fill:#b9c0cb;white-space:pre}.g{fill:#dbab79}</style><g font-family="Monaco,Consolas,Menlo,'Bitstream Vera Sans Mono','Powerline Symbols',monospace" font-size="1.67"><defs><symbol id="1"><text y="1.67" class="f">Windows</text><text x="8.016" y="1.67" class="f">PowerShell</text></symbol><symbol id="2"><text y="1.67" class="f">Copyright</text><text x="10.02" y="1.67" class="f">(C)</text><text x="14.028" y="1.67" class="f">Microsoft</text><text x="24.048" y="1.67" class="f">Corporation.</text><text x="37.074" y="1.67" class="f">All</text><text x="41.082" y="1.67" class="f">rights</text><text x="48.096" y="1.67" class="f">reserved.</text></symbol><symbol id="3"><text y="1.67" class="f">Try</text><text x="4.008" y="1.67" class="f">the</text><text x="8.016" y="1.67" class="f">new</text><text x="12.024" y="1.67" class="f">cross-platform</text><text x="27.054" y="1.67" class="f">PowerShell</text><text x="38.076" y="1.67" class="f">https://aka.ms/pscore6</text></symbol><symbol id="4"><text y="1.67" class="f">PS</text><text x="3.006" y="1.67" class="f">C:\Users\torst&gt;</text></symbol><symbol id="5"><text y="1.67" class="f">PS</text><text x="3.006" y="1.67" class="f">C:\Users\torst&gt;</text><text x="19.038" y="1.67" class="g">.\websocat.exe</text><text x="34.068" y="1.67" class="f">ws://127.0.0.1:3123/client</text></symbol><symbol id="6"><text y="1.67" class="f">{&quot;Control&quot;:{&quot;Mock&quot;:&quot;/dev/ttyACM0&quot;}}</text></symbol><symbol id="7"><text y="1.67" class="f">{&quot;Ok&quot;:{&quot;Sync&quot;:{&quot;ControlGranted&quot;:[{&quot;id&quot;:{&quot;Mock&quot;:&quot;/dev/ttyACM0&quot;}}]}}}</text></symbol><symbol id="8"><text y="1.67" class="f">{&quot;Observe&quot;:{&quot;Mock&quot;:&quot;/dev/ttyACM0&quot;}}</text></symbol><symbol id="9"><text y="1.67" class="f">{&quot;Ok&quot;:{&quot;Sync&quot;:{&quot;Observing&quot;:{&quot;id&quot;:{&quot;Mock&quot;:&quot;/dev/ttyACM0&quot;}}}}}</text></symbol><symbol id="10"><text y="1.67" class="f">{&quot;Write&quot;:[{&quot;Mock&quot;:&quot;/dev/ttyACM0&quot;},&quot;Hello\nWorld\nBye!&quot;]}</text></symbol><symbol id="11"><text y="1.67" class="f">{&quot;Ok&quot;:{&quot;Sync&quot;:&quot;WriteOk&quot;}}</text></symbol><symbol id="12"><text y="1.67" class="f">{&quot;Ok&quot;:{&quot;Async&quot;:{&quot;Message&quot;:{&quot;endpoint&quot;:{&quot;id&quot;:{&quot;Mock&quot;:&quot;/dev/ttyACM0&quot;}},&quot;message&quot;:[72,101,108,108,111]}}}}</text></symbol><symbol id="13"><text y="1.67" class="f">{&quot;Ok&quot;:{&quot;Async&quot;:{&quot;Message&quot;:{&quot;endpoint&quot;:{&quot;id&quot;:{&quot;Mock&quot;:&quot;/dev/ttyACM0&quot;}},&quot;message&quot;:[87,111,114,108,100]}}}}</text></symbol><symbol id="14"><text y="1.67" class="f">{&quot;Ok&quot;:{&quot;Async&quot;:{&quot;Message&quot;:{&quot;endpoint&quot;:{&quot;id&quot;:{&quot;Mock&quot;:&quot;/dev/ttyACM0&quot;}},&quot;message&quot;:[66,121,101,33]}}}}</text></symbol><symbol id="15"><text y="1.67" class="f">PS</text><text x="3.006" y="1.67" class="f">C:\Users\torst&gt;</text><text x="19.038" y="1.67" class="g">e</text></symbol><symbol id="16"><text y="1.67" class="f">PS</text><text x="3.006" y="1.67" class="f">C:\Users\torst&gt;</text><text x="19.038" y="1.67" class="g">ex</text></symbol><symbol id="17"><text y="1.67" class="f">PS</text><text x="3.006" y="1.67" class="f">C:\Users\torst&gt;</text><text x="19.038" y="1.67" class="g">exi</text></symbol><symbol id="18"><text y="1.67" class="f">PS</text><text x="3.006" y="1.67" class="f">C:\Users\torst&gt;</text><text x="19.038" y="1.67" style="white-space:pre" fill="#a8cc8c">exit</text></symbol><symbol id="a"><path fill="transparent" d="M0 0h115v29H0z"/></symbol><symbol id="b"><path fill="#6f7683" d="M0 0h1.102v2.171H0z"/></symbol></defs><path class="a" d="M0 0h115v62.959H0z"/><g style="animation-duration:19.81561255455017s;animation-iteration-count:infinite;animation-name:k;animation-timing-function:steps(1,end)"><svg width="3335"><svg><use xlink:href="#a"/><use xlink:href="#b" x="-.004"/></svg><svg x="115"><use xlink:href="#a"/><use xlink:href="#b" x="59.996" y="6.488"/><use xlink:href="#1"/><use xlink:href="#2" y="2.171"/><use xlink:href="#3" y="6.513"/></svg><svg x="230"><use xlink:href="#a"/><use xlink:href="#b" x="-.004" y="10.83"/><use xlink:href="#1"/><use xlink:href="#2" y="2.171"/><use xlink:href="#3" y="6.513"/></svg><svg x="345"><use xlink:href="#a"/><use xlink:href="#b" x="18.996" y="10.83"/><use xlink:href="#1"/><use xlink:href="#2" y="2.171"/><use xlink:href="#3" y="6.513"/><use xlink:href="#4" y="10.855"/></svg><svg x="460"><use xlink:href="#a"/><use xlink:href="#1"/><use xlink:href="#2" y="2.171"/><use xlink:href="#3" y="6.513"/><use xlink:href="#4" y="10.855"/></svg><svg x="575"><use xlink:href="#a"/><use xlink:href="#b" x="59.996" y="10.83"/><use xlink:href="#1"/><use xlink:href="#2" y="2.171"/><use xlink:href="#3" y="6.513"/><use xlink:href="#5" y="10.855"/></svg><svg x="690"><use xlink:href="#a"/><use xlink:href="#b" x="-.004" y="13.001"/><use xlink:href="#1"/><use xlink:href="#2" y="2.171"/><use xlink:href="#3" y="6.513"/><use xlink:href="#5" y="10.855"/></svg><svg x="805"><use xlink:href="#a"/><use xlink:href="#b" x="9.996" y="13.001"/><use xlink:href="#1"/><use xlink:href="#2" y="2.171"/><use xlink:href="#3" y="6.513"/><use xlink:href="#5" y="10.855"/><text y="14.696" class="f">{&quot;Control&quot;</text></svg><svg x="920"><use xlink:href="#a"/><use xlink:href="#b" x="34.996" y="13.001"/><use xlink:href="#1"/><use xlink:href="#2" y="2.171"/><use xlink:href="#3" y="6.513"/><use xlink:href="#5" y="10.855"/><use xlink:href="#6" y="13.026"/></svg><svg x="1035"><use xlink:href="#a"/><use xlink:href="#b" x="-.004" y="15.172"/><use xlink:href="#1"/><use xlink:href="#2" y="2.171"/><use xlink:href="#3" y="6.513"/><use xlink:href="#5" y="10.855"/><use xlink:href="#6" y="13.026"/></svg><svg x="1150"><use xlink:href="#a"/><use xlink:href="#b" x="-.004" y="17.343"/><use xlink:href="#1"/><use xlink:href="#2" y="2.171"/><use xlink:href="#3" y="6.513"/><use xlink:href="#5" y="10.855"/><use xlink:href="#6" y="13.026"/><use xlink:href="#7" y="15.197"/></svg><svg x="1265"><use xlink:href="#a"/><use xlink:href="#b" x="9.996" y="17.343"/><use xlink:href="#1"/><use xlink:href="#2" y="2.171"/><use xlink:href="#3" y="6.513"/><use xlink:href="#5" y="10.855"/><use xlink:href="#6" y="13.026"/><use xlink:href="#7" y="15.197"/><text y="19.038" class="f">{&quot;Observe&quot;</text></svg><svg x="1380"><use xlink:href="#a"/><use xlink:href="#b" x="34.996" y="17.343"/><use xlink:href="#1"/><use xlink:href="#2" y="2.171"/><use xlink:href="#3" y="6.513"/><use xlink:href="#5" y="10.855"/><use xlink:href="#6" y="13.026"/><use xlink:href="#7" y="15.197"/><use xlink:href="#8" y="17.368"/></svg><svg x="1495"><use xlink:href="#a"/><use xlink:href="#b" x="-.004" y="19.514"/><use xlink:href="#1"/><use xlink:href="#2" y="2.171"/><use xlink:href="#3" y="6.513"/><use xlink:href="#5" y="10.855"/><use xlink:href="#6" y="13.026"/><use xlink:href="#7" y="15.197"/><use xlink:href="#8" y="17.368"/></svg><svg x="1610"><use xlink:href="#a"/><use xlink:href="#b" x="-.004" y="21.685"/><use xlink:href="#1"/><use xlink:href="#2" y="2.171"/><use xlink:href="#3" y="6.513"/><use xlink:href="#5" y="10.855"/><use xlink:href="#6" y="13.026"/><use xlink:href="#7" y="15.197"/><use xlink:href="#8" y="17.368"/><use xlink:href="#9" y="19.539"/></svg><svg x="1725"><use xlink:href="#a"/><use xlink:href="#b" x="9.996" y="21.685"/><use xlink:href="#1"/><use xlink:href="#2" y="2.171"/><use xlink:href="#3" y="6.513"/><use xlink:href="#5" y="10.855"/><use xlink:href="#6" y="13.026"/><use xlink:href="#7" y="15.197"/><use xlink:href="#8" y="17.368"/><use xlink:href="#9" y="19.539"/><text y="23.38" class="f">{&quot;Write&quot;:[</text></svg><svg x="1840"><use xlink:href="#a"/><use xlink:href="#b" x="55.996" y="21.685"/><use xlink:href="#1"/><use xlink:href="#2" y="2.171"/><use xlink:href="#3" y="6.513"/><use xlink:href="#5" y="10.855"/><use xlink:href="#6" y="13.026"/><use xlink:href="#7" y="15.197"/><use xlink:href="#8" y="17.368"/><use xlink:href="#9" y="19.539"/><use xlink:href="#10" y="21.71"/></svg><svg x="1955"><use xlink:href="#a"/><use xlink:href="#b" x="-.004" y="23.856"/><use xlink:href="#1"/><use xlink:href="#2" y="2.171"/><use xlink:href="#3" y="6.513"/><use xlink:href="#5" y="10.855"/><use xlink:href="#6" y="13.026"/><use xlink:href="#7" y="15.197"/><use xlink:href="#8" y="17.368"/><use xlink:href="#9" y="19.539"/><use xlink:href="#10" y="21.71"/></svg><svg x="2070"><use xlink:href="#a"/><use xlink:href="#b" x="-.004" y="32.54"/><use xlink:href="#1"/><use xlink:href="#2" y="2.171"/><use xlink:href="#3" y="6.513"/><use xlink:href="#5" y="10.855"/><use xlink:href="#6" y="13.026"/><use xlink:href="#7" y="15.197"/><use xlink:href="#8" y="17.368"/><use xlink:href="#9" y="19.539"/><use xlink:href="#10" y="21.71"/><use xlink:href="#11" y="23.881"/><use xlink:href="#12" y="26.052"/><use xlink:href="#13" y="28.223"/><use xlink:href="#14" y="30.394"/></svg><svg x="2185"><use xlink:href="#a"/><use xlink:href="#b" x="18.996" y="32.54"/><use xlink:href="#1"/><use xlink:href="#2" y="2.171"/><use xlink:href="#3" y="6.513"/><use xlink:href="#5" y="10.855"/><use xlink:href="#6" y="13.026"/><use xlink:href="#7" y="15.197"/><use xlink:href="#8" y="17.368"/><use xlink:href="#9" y="19.539"/><use xlink:href="#10" y="21.71"/><use xlink:href="#11" y="23.881"/><use xlink:href="#12" y="26.052"/><use xlink:href="#13" y="28.223"/><use xlink:href="#14" y="30.394"/><use xlink:href="#4" y="32.565"/></svg><svg x="2300"><use xlink:href="#a"/><use xlink:href="#1"/><use xlink:href="#2" y="2.171"/><use xlink:href="#3" y="6.513"/><use xlink:href="#5" y="10.855"/><use xlink:href="#6" y="13.026"/><use xlink:href="#7" y="15.197"/><use xlink:href="#8" y="17.368"/><use xlink:href="#9" y="19.539"/><use xlink:href="#10" y="21.71"/><use xlink:href="#11" y="23.881"/><use xlink:href="#12" y="26.052"/><use xlink:href="#13" y="28.223"/><use xlink:href="#14" y="30.394"/><use xlink:href="#4" y="32.565"/></svg><svg x="2415"><use xlink:href="#a"/><use xlink:href="#b" x="19.996" y="32.54"/><use xlink:href="#1"/><use xlink:href="#2" y="2.171"/><use xlink:href="#3" y="6.513"/><use xlink:href="#5" y="10.855"/><use xlink:href="#6" y="13.026"/><use xlink:href="#7" y="15.197"/><use xlink:href="#8" y="17.368"/><use xlink:href="#9" y="19.539"/><use xlink:href="#10" y="21.71"/><use xlink:href="#11" y="23.881"/><use xlink:href="#12" y="26.052"/><use xlink:href="#13" y="28.223"/><use xlink:href="#14" y="30.394"/><use xlink:href="#15" y="32.565"/></svg><svg x="2530"><use xlink:href="#a"/><use xlink:href="#1"/><use xlink:href="#2" y="2.171"/><use xlink:href="#3" y="6.513"/><use xlink:href="#5" y="10.855"/><use xlink:href="#6" y="13.026"/><use xlink:href="#7" y="15.197"/><use xlink:href="#8" y="17.368"/><use xlink:href="#9" y="19.539"/><use xlink:href="#10" y="21.71"/><use xlink:href="#11" y="23.881"/><use xlink:href="#12" y="26.052"/><use xlink:href="#13" y="28.223"/><use xlink:href="#14" y="30.394"/><use xlink:href="#15" y="32.565"/></svg><svg x="2645"><use xlink:href="#a"/><use xlink:href="#b" x="20.996" y="32.54"/><use xlink:href="#1"/><use xlink:href="#2" y="2.171"/><use xlink:href="#3" y="6.513"/><use xlink:href="#5" y="10.855"/><use xlink:href="#6" y="13.026"/><use xlink:href="#7" y="15.197"/><use xlink:href="#8" y="17.368"/><use xlink:href="#9" y="19.539"/><use xlink:href="#10" y="21.71"/><use xlink:href="#11" y="23.881"/><use xlink:href="#12" y="26.052"/><use xlink:href="#13" y="28.223"/><use xlink:href="#14" y="30.394"/><use xlink:href="#16" y="32.565"/></svg><svg x="2760"><use xlink:href="#a"/><use xlink:href="#1"/><use xlink:href="#2" y="2.171"/><use xlink:href="#3" y="6.513"/><use xlink:href="#5" y="10.855"/><use xlink:href="#6" y="13.026"/><use xlink:href="#7" y="15.197"/><use xlink:href="#8" y="17.368"/><use xlink:href="#9" y="19.539"/><use xlink:href="#10" y="21.71"/><use xlink:href="#11" y="23.881"/><use xlink:href="#12" y="26.052"/><use xlink:href="#13" y="28.223"/><use xlink:href="#14" y="30.394"/><use xlink:href="#16" y="32.565"/></svg><svg x="2875"><use xlink:href="#a"/><use xlink:href="#b" x="21.996" y="32.54"/><use xlink:href="#1"/><use xlink:href="#2" y="2.171"/><use xlink:href="#3" y="6.513"/><use xlink:href="#5" y="10.855"/><use xlink:href="#6" y="13.026"/><use xlink:href="#7" y="15.197"/><use xlink:href="#8" y="17.368"/><use xlink:href="#9" y="19.539"/><use xlink:href="#10" y="21.71"/><use xlink:href="#11" y="23.881"/><use xlink:href="#12" y="26.052"/><use xlink:href="#13" y="28.223"/><use xlink:href="#14" y="30.394"/><use xlink:href="#17" y="32.565"/></svg><svg x="2990"><use xlink:href="#a"/><use xlink:href="#1"/><use xlink:href="#2" y="2.171"/><use xlink:href="#3" y="6.513"/><use xlink:href="#5" y="10.855"/><use xlink:href="#6" y="13.026"/><use xlink:href="#7" y="15.197"/><use xlink:href="#8" y="17.368"/><use xlink:href="#9" y="19.539"/><use xlink:href="#10" y="21.71"/><use xlink:href="#11" y="23.881"/><use xlink:href="#12" y="26.052"/><use xlink:href="#13" y="28.223"/><use xlink:href="#14" y="30.394"/><use xlink:href="#17" y="32.565"/></svg><svg x="3105"><use xlink:href="#a"/><use xlink:href="#b" x="22.996" y="32.54"/><use xlink:href="#1"/><use xlink:href="#2" y="2.171"/><use xlink:href="#3" y="6.513"/><use xlink:href="#5" y="10.855"/><use xlink:href="#6" y="13.026"/><use xlink:href="#7" y="15.197"/><use xlink:href="#8" y="17.368"/><use xlink:href="#9" y="19.539"/><use xlink:href="#10" y="21.71"/><use xlink:href="#11" y="23.881"/><use xlink:href="#12" y="26.052"/><use xlink:href="#13" y="28.223"/><use xlink:href="#14" y="30.394"/><use xlink:href="#18" y="32.565"/></svg><svg x="3220"><use xlink:href="#a"/><use xlink:href="#b" x="-.004" y="34.711"/><use xlink:href="#1"/><use xlink:href="#2" y="2.171"/><use xlink:href="#3" y="6.513"/><use xlink:href="#5" y="10.855"/><use xlink:href="#6" y="13.026"/><use xlink:href="#7" y="15.197"/><use xlink:href="#8" y="17.368"/><use xlink:href="#9" y="19.539"/><use xlink:href="#10" y="21.71"/><use xlink:href="#11" y="23.881"/><use xlink:href="#12" y="26.052"/><use xlink:href="#13" y="28.223"/><use xlink:href="#14" y="30.394"/><use xlink:href="#18" y="32.565"/></svg></svg></g></g></svg></svg>